<?xml version="1.0" encoding="UTF-8" standalone="no" ?>
<!DOCTYPE svg PUBLIC "-//W3C//DTD SVG 1.1//EN" "http://www.w3.org/Graphics/SVG/1.1/DTD/svg11.dtd">
<svg xmlns="http://www.w3.org/2000/svg" xmlns:xlink="http://www.w3.org/1999/xlink" version="1.1" width="256" height="256" viewBox="0 0 256 256" xml:space="preserve">
<desc>Created with Fabric.js 4.2.0</desc>
<defs>
</defs>
<g transform="matrix(1 0 0 1 128 128)" id="18986403-55e4-47ec-b1e4-5e17b4f2b415"  >
<rect style="stroke: none; stroke-width: 1; stroke-dasharray: none; stroke-linecap: butt; stroke-dashoffset: 0; stroke-linejoin: miter; stroke-miterlimit: 4; fill: rgb(255,255,255); fill-rule: nonzero; opacity: 1;" vector-effect="non-scaling-stroke"  x="-128" y="-128" rx="0" ry="0" width="256" height="256" />
</g>
<g transform="matrix(0 0 0 0 0 0)" id="bbaec1a9-833e-44a8-92d8-8a55b21bf437"  >
</g>
<g transform="matrix(1.36 0 0 1.36 127.94 127.94)"  >
<g style="" vector-effect="non-scaling-stroke"   >
		<g transform="matrix(1 0 0 1 -8.15 -8.82)"  >
<path style="stroke: none; stroke-width: 1; stroke-dasharray: none; stroke-linecap: butt; stroke-dashoffset: 0; stroke-linejoin: miter; stroke-miterlimit: 4; fill: rgb(101,101,101); fill-rule: nonzero; opacity: 1;" vector-effect="non-scaling-stroke"  transform=" translate(-41.84, -41.18)" d="M 51.895 37.497 L 45.522000000000006 37.497 L 45.522000000000006 31.181 C 45.522000000000006 29.149 43.876000000000005 27.502000000000002 41.843 27.502000000000002 C 39.867000000000004 27.502000000000002 38.218 29.148000000000003 38.218 31.181 L 38.218 37.497 L 31.849000000000004 37.497 C 29.870000000000005 37.497 28.224000000000004 39.145 28.166000000000004 41.177 C 28.223000000000003 43.209 29.869000000000003 44.858 31.849000000000004 44.858 L 38.218 44.858 L 38.218 51.174 C 38.218 53.205 39.868 54.854 41.843 54.854 C 43.875 54.854 45.522000000000006 53.205999999999996 45.522000000000006 51.174 L 45.522000000000006 44.858 L 51.895 44.858 C 53.871 44.858 55.521 43.209999999999994 55.521 41.177 C 55.521 39.144000000000005 53.87 37.497 51.895 37.497 z" stroke-linecap="round" />
</g>
		<g transform="matrix(1 0 0 1 0 0)"  >
<path style="stroke: none; stroke-width: 1; stroke-dasharray: none; stroke-linecap: butt; stroke-dashoffset: 0; stroke-linejoin: miter; stroke-miterlimit: 4; fill: rgb(101,101,101); fill-rule: nonzero; opacity: 1;" vector-effect="non-scaling-stroke"  transform=" translate(-50, -50)" d="M 84.464 72.431 L 68.152 56.063 C 67.933 55.843 67.657 55.623000000000005 67.384 55.403000000000006 C 69.745 51.230000000000004 71.062 46.452000000000005 71.062 41.342000000000006 C 71.062 25.303000000000004 57.991 12.287000000000006 41.952 12.287000000000006 C 25.912999999999997 12.287000000000006 12.899 25.303 12.899 41.342 C 12.899 57.379999999999995 25.914 70.451 41.952999999999996 70.451 C 46.455999999999996 70.451 50.687 69.40899999999999 54.476 67.59599999999999 C 54.752 68.03699999999999 55.080999999999996 68.41899999999998 55.463 68.80499999999999 L 71.778 85.11699999999999 C 75.29400000000001 88.57999999999998 81.00500000000001 88.57999999999998 84.464 85.11699999999999 C 87.979 81.603 87.979 75.89 84.464 72.431 z M 41.953 59.247 C 32.121 59.247 24.101000000000003 51.229 24.101000000000003 41.342 C 24.101000000000003 31.509999999999998 32.121 23.491 41.953 23.491 C 51.838 23.491 59.858000000000004 31.509999999999998 59.858000000000004 41.342 C 59.857 51.229 51.838 59.247 41.953 59.247 z" stroke-linecap="round" />
</g>
</g>
</g>
<g transform="matrix(1 0 0 1 116.98 115.65)"  >
<path style="stroke: rgb(255,255,255); stroke-width: 30; stroke-dasharray: none; stroke-linecap: round; stroke-dashoffset: 0; stroke-linejoin: round; stroke-miterlimit: 10; fill: none; fill-rule: nonzero; opacity: 1;" vector-effect="non-scaling-stroke"  transform=" translate(-116.97, -115.65)" d="M 115.89205128205128 110.13689102564102 Q 115.92205128205129 110.13689102564102 116.44717948717948 110.13689102564102 Q 116.9723076923077 110.13689102564102 117.4974358974359 110.13689102564102 Q 118.0225641025641 110.13689102564102 118.2851282051282 110.13689102564102 Q 118.5476923076923 110.13689102564102 118.81025641025641 110.13689102564102 Q 119.07282051282051 110.13689102564102 119.07282051282051 110.39945512820512 Q 119.07282051282051 110.66201923076923 119.07282051282051 110.92458333333333 Q 119.07282051282051 111.18714743589743 119.07282051282051 111.44971153846154 Q 119.07282051282051 111.71227564102564 119.07282051282051 112.23740384615385 Q 119.07282051282051 112.76253205128205 119.07282051282051 113.02509615384616 Q 119.07282051282051 113.28766025641026 119.07282051282051 113.55022435897436 Q 119.07282051282051 113.81278846153846 119.07282051282051 114.07535256410256 Q 119.07282051282051 114.33791666666667 119.07282051282051 114.60048076923077 Q 119.07282051282051 114.86304487179487 118.81025641025641 115.12560897435898 Q 118.5476923076923 115.38817307692308 118.2851282051282 115.65073717948718 Q 118.0225641025641 115.91330128205128 118.0225641025641 116.17586538461538 Q 118.0225641025641 116.43842948717949 118.0225641025641 116.70099358974359 Q 118.0225641025641 116.96355769230769 117.75999999999999 116.96355769230769 Q 117.49743589743589 116.96355769230769 117.49743589743589 117.2261217948718 Q 117.49743589743589 117.4886858974359 117.2348717948718 117.4886858974359 Q 116.9723076923077 117.4886858974359 116.7097435897436 117.4886858974359 Q 116.44717948717948 117.4886858974359 116.18461538461538 117.4886858974359 Q 115.92205128205129 117.4886858974359 115.65948717948717 117.4886858974359 Q 115.39692307692307 117.4886858974359 115.13435897435897 117.4886858974359 Q 114.87179487179488 117.4886858974359 114.60923076923078 117.4886858974359 Q 114.34666666666666 117.4886858974359 114.08410256410257 117.4886858974359 Q 113.82153846153847 117.4886858974359 113.55897435897435 117.4886858974359 Q 113.29641025641025 117.4886858974359 113.03384615384616 117.4886858974359 Q 112.77128205128206 117.4886858974359 112.77128205128206 117.2261217948718 Q 112.77128205128206 116.96355769230769 112.50871794871796 116.96355769230769 Q 112.24615384615385 116.96355769230769 112.24615384615385 117.2261217948718 Q 112.24615384615385 117.4886858974359 112.24615384615385 117.75125 Q 112.24615384615385 118.0138141025641 112.24615384615385 118.2763782051282 Q 112.24615384615385 118.53894230769231 112.50871794871796 118.53894230769231 Q 112.77128205128206 118.53894230769231 112.77128205128206 118.80150641025641 Q 112.77128205128206 119.0640705128205 112.77128205128206 119.32663461538462 Q 112.77128205128206 119.58919871794872 112.77128205128206 119.85176282051282 Q 112.77128205128206 120.11432692307692 112.77128205128206 120.37689102564102 Q 112.77128205128206 120.63945512820513 112.77128205128206 120.90201923076924 Q 112.77128205128206 121.16458333333334 113.03384615384616 121.16458333333334 Q 113.29641025641025 121.16458333333334 113.55897435897435 121.16458333333334 Q 113.82153846153847 121.16458333333334 113.82153846153847 120.90201923076924 Q 113.82153846153847 120.63945512820513 114.08410256410257 120.63945512820513 Q 114.34666666666666 120.63945512820513 114.60923076923078 120.63945512820513 Q 114.87179487179488 120.63945512820513 114.87179487179488 120.37689102564102 Q 114.87179487179488 120.11432692307692 115.13435897435897 120.11432692307692 Q 115.39692307692307 120.11432692307692 115.65948717948717 120.11432692307692 Q 115.92205128205129 120.11432692307692 116.18461538461538 120.11432692307692 Q 116.44717948717948 120.11432692307692 116.44717948717948 119.85176282051282 Q 116.44717948717948 119.58919871794872 116.7097435897436 119.58919871794872 Q 116.9723076923077 119.58919871794872 116.9723076923077 119.32663461538462 Q 116.9723076923077 119.0640705128205 117.2348717948718 119.0640705128205 Q 117.49743589743589 119.0640705128205 117.75999999999999 119.0640705128205 Q 118.0225641025641 119.0640705128205 118.0225641025641 118.80150641025641 Q 118.0225641025641 118.53894230769231 118.2851282051282 118.53894230769231 Q 118.5476923076923 118.53894230769231 118.81025641025641 118.2763782051282 Q 119.07282051282051 118.0138141025641 119.33538461538461 118.0138141025641 Q 119.59794871794871 118.0138141025641 119.86051282051281 118.0138141025641 Q 120.12307692307692 118.0138141025641 120.12307692307692 117.75125 Q 120.12307692307692 117.4886858974359 120.38564102564104 117.4886858974359 Q 120.64820512820513 117.4886858974359 120.91076923076923 117.4886858974359 Q 121.17333333333333 117.4886858974359 121.17333333333333 117.2261217948718 Q 121.17333333333333 116.96355769230769 121.43589743589743 116.96355769230769 Q 121.69846153846154 116.96355769230769 121.69846153846154 116.70099358974359 Q 121.69846153846154 116.43842948717949 121.43589743589743 116.43842948717949 Q 121.17333333333333 116.43842948717949 121.17333333333333 116.17586538461538 Q 121.17333333333333 115.91330128205128 120.91076923076923 115.91330128205128 Q 120.64820512820513 115.91330128205128 120.64820512820513 115.65073717948718 Q 120.64820512820513 115.38817307692308 120.64820512820513 115.12560897435898 Q 120.64820512820513 114.86304487179487 120.38564102564104 114.86304487179487 Q 120.12307692307692 114.86304487179487 119.86051282051281 114.86304487179487 Q 119.59794871794871 114.86304487179487 119.33538461538461 114.86304487179487 Q 119.07282051282051 114.86304487179487 118.81025641025641 114.86304487179487 L 118.5176923076923 114.86304487179487" stroke-linecap="round" />
</g>
</svg>